# xmcd
#
# Track frame offsets:
#	150
#	15884
#	34603
#	51991
#	62742
#	77952
#	94332
#	106434
#	125275
#	140217
#	157463
#	170329
#
# Disc length: 2540 seconds
#
# Revision: 1
# Processed by: cddbd v1.5.1PL0 Copyright (c) Steve Scherf et al.
# Submitted via: audiograbber 1.83.01
#
DISCID=a509ea0c
DTITLE=Evangelistkvartetten - Leva nära
DYEAR=2005
DGENRE=Christian Rock
TTITLE0=Tända en eld 3,29
TTITLE1=Herre vad tänkte du på 4,09
TTITLE2=Välkommen hem 3,51
TTITLE3=Tänk att jag tillhör Jesus 2,23
TTITLE4=Är någon törstig 3,22
TTITLE5=Låt källan flöda 3,38
TTITLE6=Jag vet att han lever 2,41
TTITLE7=Jesu händer 4,11
TTITLE8=Jag vill leva nära 3,19
TTITLE9=Åh vad Gud varit god emot mig 3,49
TTITLE10=Herre kär tag min hand 2,51
TTITLE11=Hur skall det kännas 4,29
EXTD=
EXTT0=
EXTT1=
EXTT2=
EXTT3=
EXTT4=
EXTT5=
EXTT6=
EXTT7=
EXTT8=
EXTT9=
EXTT10=
EXTT11=
PLAYORDER=
